<?xml version="1.0" encoding="UTF-8" standalone="no"?><svg xmlns="http://www.w3.org/2000/svg" xmlns:xlink="http://www.w3.org/1999/xlink" contentStyleType="text/css" height="1074px" preserveAspectRatio="none" style="width:2039px;height:1074px;background:#FFFFFF;" version="1.1" viewBox="0 0 2039 1074" width="2039px" zoomAndPan="magnify"><defs/><g><rect height="26.7999" style="stroke:#00000000;stroke-width:1.0;fill:none;" width="243" x="891" y="5"/><text fill="#000000" font-family="sans-serif" font-size="14" font-weight="bold" lengthAdjust="spacing" textLength="233" x="896" y="23.9999">Trust and Configuration Hierarchy</text><!--MD5=[477c48b5cf8fa661f5667fa3ff8cc2cf]
class Wallet Vendor--><g id="elem_Wallet Vendor"><rect codeLine="17" fill="#D3D3D3" height="32" id="Wallet Vendor" rx="2.5" ry="2.5" style="stroke:#000000;stroke-width:0.5;" width="118" x="1422" y="176.7999"/><ellipse cx="1437" cy="192.7999" fill="#ADD1B2" rx="11" ry="11" style="stroke:#181818;stroke-width:1.0;"/><path d="M1439.1563,195.2218 Q1439.1563,194.0812 1440,194.0812 Q1440.8438,194.0812 1440.8438,195.2218 L1440.8438,197.7999 L1432.8438,197.7999 Q1431.7188,197.7999 1431.7188,196.9562 Q1431.7188,196.0968 1432.8438,196.0968 L1433.0938,196.0968 L1433.0938,189.5812 L1432.8438,189.5812 Q1431.7188,189.5812 1431.7188,188.7374 Q1431.7188,188.2531 1432,188.0812 Q1432.2969,187.8937 1432.8438,187.8937 L1440.4688,187.8937 L1440.4688,190.4406 Q1440.4688,191.5812 1439.625,191.5812 Q1438.7813,191.5812 1438.7813,190.4406 L1438.7813,189.5812 L1434.7969,189.5812 L1434.7969,191.9874 L1436.25,191.9874 L1436.25,191.8624 Q1436.25,190.7218 1437.0781,190.7218 Q1437.9219,190.7218 1437.9219,191.8624 L1437.9219,193.7843 Q1437.9219,194.9093 1437.0938,194.9093 Q1436.25,194.9093 1436.25,193.7843 L1436.25,193.6749 L1434.7969,193.6749 L1434.7969,196.0968 L1439.1563,196.0968 L1439.1563,195.2218 Z " fill="#000000"/><text fill="#000000" font-family="sans-serif" font-size="14" lengthAdjust="spacing" textLength="86" x="1451" y="198.3999">Wallet Vendor</text></g><g id="elem_GMN3"><path d="M1102,179.7999 L1102,205.3999 A0,0 0 0 0 1102,205.3999 L1316,205.3999 A0,0 0 0 0 1316,205.3999 L1316,197.7999 L1421.72,192.7999 L1316,189.7999 L1316,189.7999 L1306,179.7999 L1102,179.7999 A0,0 0 0 0 1102,179.7999 " fill="#FEFFDD" style="stroke:#181818;stroke-width:0.5;"/><path d="M1306,179.7999 L1306,189.7999 L1316,189.7999 L1306,179.7999 " fill="#FEFFDD" style="stroke:#181818;stroke-width:0.5;"/><text fill="#000000" font-family="sans-serif" font-size="13" lengthAdjust="spacing" textLength="193" x="1108" y="197.7999">There will be many Wallet Vendors</text></g><!--MD5=[5a68ec3a1611e09d4b673fefd5561d4a]
class Network Access Credential Issuer Key--><g id="elem_Network Access Credential Issuer Key"><rect codeLine="20" fill="#ADD8E6" height="74" id="Network Access Credential Issuer Key" rx="2.5" ry="2.5" style="stroke:#000000;stroke-width:0.5;" width="432" x="1534" y="308.7999"/><text fill="#000000" font-family="sans-serif" font-size="12" font-style="italic" lengthAdjust="spacing" textLength="22" x="1739" y="325.8">«&#128273;»</text><text fill="#000000" font-family="sans-serif" font-size="14" lengthAdjust="spacing" textLength="234" x="1633" y="342.2">Network Access Credential Issuer Key</text><line style="stroke:#000000;stroke-width:0.5;" x1="1535" x2="1965" y1="350" y2="350"/><text fill="#000000" font-family="sans-serif" font-size="14" lengthAdjust="spacing" textLength="420" x="1540" y="367.9999">issues network access credentials with valid provisioning credentials</text><line style="stroke:#000000;stroke-width:0.5;" x1="1535" x2="1965" y1="374.7999" y2="374.7999"/></g><!--MD5=[b7eb8a6ea895393fa61a9a0425279b10]
class Wallet Provisioning Credential Issuer Key--><g id="elem_Wallet Provisioning Credential Issuer Key"><rect codeLine="25" fill="#ADD8E6" height="74" id="Wallet Provisioning Credential Issuer Key" rx="2.5" ry="2.5" style="stroke:#000000;stroke-width:0.5;" width="367" x="1060.5" y="308.7999"/><text fill="#000000" font-family="sans-serif" font-size="12" font-style="italic" lengthAdjust="spacing" textLength="22" x="1233" y="325.8">«&#128273;»</text><text fill="#000000" font-family="sans-serif" font-size="14" lengthAdjust="spacing" textLength="253" x="1117.5" y="342.2">Wallet Provisioning Credential Issuer Key</text><line style="stroke:#000000;stroke-width:0.5;" x1="1061.5" x2="1426.5" y1="350" y2="350"/><text fill="#000000" font-family="sans-serif" font-size="14" lengthAdjust="spacing" textLength="355" x="1066.5" y="367.9999">issues wallet provisioning credentials in a secured context</text><line style="stroke:#000000;stroke-width:0.5;" x1="1061.5" x2="1426.5" y1="374.7999" y2="374.7999"/></g><!--MD5=[9f070bf9f108c27faa2eb76515c78fb3]
class Wallet--><g id="elem_Wallet"><rect codeLine="30" fill="#90EE90" height="109.9996" id="Wallet" rx="2.5" ry="2.5" style="stroke:#000000;stroke-width:0.5;" width="242" x="773" y="520.7999"/><text fill="#000000" font-family="sans-serif" font-size="14" lengthAdjust="spacing" textLength="38" x="875" y="539.7999">Wallet</text><line style="stroke:#000000;stroke-width:0.5;" x1="774" x2="1014" y1="547.5999" y2="547.5999"/><ellipse cx="784" cy="558.5999" fill="none" rx="3" ry="3" style="stroke:#038048;stroke-width:1.0;"/><text fill="#000000" font-family="sans-serif" font-size="14" lengthAdjust="spacing" textLength="216" x="793" y="565.5998">Wallet Provisioning Credential «&#128273;»</text><ellipse cx="784" cy="575.3998" fill="none" rx="3" ry="3" style="stroke:#038048;stroke-width:1.0;"/><text fill="#000000" font-family="sans-serif" font-size="14" lengthAdjust="spacing" textLength="197" x="793" y="582.3997">Network Access Credential «&#128273;»</text><ellipse cx="784" cy="592.1997" fill="none" rx="3" ry="3" style="stroke:#038048;stroke-width:1.0;"/><text fill="#000000" font-family="sans-serif" font-size="14" lengthAdjust="spacing" textLength="194" x="793" y="599.1996">Token Transfer Credential «&#128273;»</text><ellipse cx="784" cy="608.9996" fill="none" rx="3" ry="3" style="stroke:#038048;stroke-width:1.0;"/><text fill="#000000" font-family="sans-serif" font-size="14" lengthAdjust="spacing" textLength="117" x="793" y="615.9996">Configuration Data</text><line style="stroke:#000000;stroke-width:0.5;" x1="774" x2="1014" y1="622.7996" y2="622.7996"/></g><!--MD5=[380ebcb1554fa4ee695b79ffaf3ed7ea]
class Briolette Operator--><g id="elem_Briolette Operator"><rect codeLine="41" fill="#D3D3D3" height="32" id="Briolette Operator" rx="2.5" ry="2.5" style="stroke:#000000;stroke-width:0.5;" width="140" x="1404" y="44.7999"/><ellipse cx="1419" cy="60.7999" fill="#ADD1B2" rx="11" ry="11" style="stroke:#181818;stroke-width:1.0;"/><path d="M1421.1563,63.2218 Q1421.1563,62.0812 1422,62.0812 Q1422.8438,62.0812 1422.8438,63.2218 L1422.8438,65.7999 L1414.8438,65.7999 Q1413.7188,65.7999 1413.7188,64.9562 Q1413.7188,64.0968 1414.8438,64.0968 L1415.0938,64.0968 L1415.0938,57.5812 L1414.8438,57.5812 Q1413.7188,57.5812 1413.7188,56.7374 Q1413.7188,56.2531 1414,56.0812 Q1414.2969,55.8937 1414.8438,55.8937 L1422.4688,55.8937 L1422.4688,58.4406 Q1422.4688,59.5812 1421.625,59.5812 Q1420.7813,59.5812 1420.7813,58.4406 L1420.7813,57.5812 L1416.7969,57.5812 L1416.7969,59.9874 L1418.25,59.9874 L1418.25,59.8624 Q1418.25,58.7218 1419.0781,58.7218 Q1419.9219,58.7218 1419.9219,59.8624 L1419.9219,61.7843 Q1419.9219,62.9093 1419.0938,62.9093 Q1418.25,62.9093 1418.25,61.7843 L1418.25,61.6749 L1416.7969,61.6749 L1416.7969,64.0968 L1421.1563,64.0968 L1421.1563,63.2218 Z " fill="#000000"/><text fill="#000000" font-family="sans-serif" font-size="14" lengthAdjust="spacing" textLength="108" x="1433" y="66.3999">Briolette Operator</text></g><g id="elem_GMN10"><path d="M1119,47.7999 L1119,73.3999 A0,0 0 0 0 1119,73.3999 L1369,73.3999 A0,0 0 0 0 1369,73.3999 L1369,65.7999 L1403.68,60.7999 L1369,57.7999 L1369,57.7999 L1359,47.7999 L1119,47.7999 A0,0 0 0 0 1119,47.7999 " fill="#FEFFDD" style="stroke:#181818;stroke-width:0.5;"/><path d="M1359,47.7999 L1359,57.7999 L1369,57.7999 L1359,47.7999 " fill="#FEFFDD" style="stroke:#181818;stroke-width:0.5;"/><text fill="#000000" font-family="sans-serif" font-size="13" lengthAdjust="spacing" textLength="229" x="1125" y="65.7999">Wallets may work across many operators</text></g><!--MD5=[83c7c07c0f183ee2027451438a3eb7c1]
class Common Server State--><g id="elem_Common Server State"><rect codeLine="44" fill="#F5F5DC" height="109.9996" id="Common Server State" rx="2.5" ry="2.5" style="stroke:#000000;stroke-width:0.5;" width="310" x="1595" y="137.7999"/><text fill="#000000" font-family="sans-serif" font-size="14" lengthAdjust="spacing" textLength="134" x="1683" y="156.7999">Common Server State</text><line style="stroke:#000000;stroke-width:0.5;" x1="1596" x2="1904" y1="164.5999" y2="164.5999"/><ellipse cx="1606" cy="175.5999" fill="none" rx="3" ry="3" style="stroke:#038048;stroke-width:1.0;"/><text fill="#000000" font-family="sans-serif" font-size="14" lengthAdjust="spacing" textLength="284" x="1615" y="182.5998">Network Access Credential Group Public Keys</text><ellipse cx="1606" cy="192.3998" fill="none" rx="3" ry="3" style="stroke:#038048;stroke-width:1.0;"/><text fill="#000000" font-family="sans-serif" font-size="14" lengthAdjust="spacing" textLength="193" x="1615" y="199.3997">Epoch Data Signing Public Key</text><ellipse cx="1606" cy="209.1997" fill="none" rx="3" ry="3" style="stroke:#038048;stroke-width:1.0;"/><text fill="#000000" font-family="sans-serif" font-size="14" lengthAdjust="spacing" textLength="73" x="1615" y="216.1996">Epoch Data</text><ellipse cx="1606" cy="225.9996" fill="none" rx="3" ry="3" style="stroke:#038048;stroke-width:1.0;"/><text fill="#000000" font-family="sans-serif" font-size="14" lengthAdjust="spacing" textLength="95" x="1615" y="232.9996">Service Policies</text><line style="stroke:#000000;stroke-width:0.5;" x1="1596" x2="1904" y1="239.7996" y2="239.7996"/></g><!--MD5=[ecf1cb046d7992b0e92ed5b1c422ebff]
class Client State (Epoch) Signing Key--><g id="elem_Client State (Epoch) Signing Key"><rect codeLine="52" fill="#ADD8E6" height="41.2" id="Client State (Epoch) Signing Key" rx="2.5" ry="2.5" style="stroke:#000000;stroke-width:0.5;" width="208" x="817" y="325.2999"/><text fill="#000000" font-family="sans-serif" font-size="12" font-style="italic" lengthAdjust="spacing" textLength="22" x="910" y="342.3">«&#128273;»</text><text fill="#000000" font-family="sans-serif" font-size="14" lengthAdjust="spacing" textLength="202" x="820" y="358.7">Client State (Epoch) Signing Key</text></g><!--MD5=[64176d078bb6f9f5ffba3d411f2dadc8]
class Epoch Data--><g id="elem_Epoch Data"><rect codeLine="55" fill="#F5F5DC" height="93.1997" id="Epoch Data" rx="2.5" ry="2.5" style="stroke:#000000;stroke-width:0.5;" width="224" x="513" y="146.2999"/><text fill="#000000" font-family="sans-serif" font-size="14" lengthAdjust="spacing" textLength="73" x="588.5" y="165.2999">Epoch Data</text><line style="stroke:#000000;stroke-width:0.5;" x1="514" x2="736" y1="173.0999" y2="173.0999"/><ellipse cx="524" cy="184.0999" fill="none" rx="3" ry="3" style="stroke:#038048;stroke-width:1.0;"/><text fill="#000000" font-family="sans-serif" font-size="14" lengthAdjust="spacing" textLength="198" x="533" y="191.0998">System-wide trusted public keys</text><ellipse cx="524" cy="200.8998" fill="none" rx="3" ry="3" style="stroke:#038048;stroke-width:1.0;"/><text fill="#000000" font-family="sans-serif" font-size="14" lengthAdjust="spacing" textLength="100" x="533" y="207.8997">Revocation data</text><line style="stroke:#000000;stroke-width:0.5;" x1="514" x2="736" y1="214.6997" y2="214.6997"/><ellipse cx="524" cy="225.6997" fill="#84BE84" rx="3" ry="3" style="stroke:#038048;stroke-width:1.0;"/><text fill="#000000" font-family="sans-serif" font-size="14" lengthAdjust="spacing" textLength="178" x="533" y="232.6996">Current System Epoch (time)</text></g><!--MD5=[b1c95104c74b06d1f702797b9f63c198]
class Token Signing Key (Mint)--><g id="elem_Token Signing Key (Mint)"><rect codeLine="62" fill="#ADD8E6" height="41.2" id="Token Signing Key (Mint)" rx="2.5" ry="2.5" style="stroke:#000000;stroke-width:0.5;" width="163" x="505.5" y="707.7999"/><text fill="#000000" font-family="sans-serif" font-size="12" font-style="italic" lengthAdjust="spacing" textLength="22" x="576" y="724.8">«&#128273;»</text><text fill="#000000" font-family="sans-serif" font-size="14" lengthAdjust="spacing" textLength="157" x="508.5" y="741.2">Token Signing Key (Mint)</text></g><!--MD5=[ff1589c1afde828942c243480fb4ad97]
class Transfer Ticket Signing Key--><g id="elem_Transfer Ticket Signing Key"><rect codeLine="64" fill="#ADD8E6" height="74" id="Transfer Ticket Signing Key" rx="2.5" ry="2.5" style="stroke:#000000;stroke-width:0.5;" width="178" x="7" y="412.7999"/><text fill="#000000" font-family="sans-serif" font-size="12" font-style="italic" lengthAdjust="spacing" textLength="22" x="85" y="429.8">«&#128273;»</text><text fill="#000000" font-family="sans-serif" font-size="14" lengthAdjust="spacing" textLength="172" x="10" y="446.2">Transfer Ticket Signing Key</text><line style="stroke:#000000;stroke-width:0.5;" x1="8" x2="184" y1="454" y2="454"/><text fill="#000000" font-family="sans-serif" font-size="14" lengthAdjust="spacing" textLength="76" x="13" y="471.9999">signs tickets</text><line style="stroke:#000000;stroke-width:0.5;" x1="8" x2="184" y1="478.7999" y2="478.7999"/></g><!--MD5=[3357565fce2fa6e9c7fe985cfb589e96]
class Token Transfer Credential Issuer Key--><g id="elem_Token Transfer Credential Issuer Key"><rect codeLine="69" fill="#ADD8E6" height="74" id="Token Transfer Credential Issuer Key" rx="2.5" ry="2.5" style="stroke:#000000;stroke-width:0.5;" width="449" x="261.5" y="308.7999"/><text fill="#000000" font-family="sans-serif" font-size="12" font-style="italic" lengthAdjust="spacing" textLength="22" x="475" y="325.8">«&#128273;»</text><text fill="#000000" font-family="sans-serif" font-size="14" lengthAdjust="spacing" textLength="231" x="370.5" y="342.2">Token Transfer Credential Issuer Key</text><line style="stroke:#000000;stroke-width:0.5;" x1="262.5" x2="709.5" y1="350" y2="350"/><text fill="#000000" font-family="sans-serif" font-size="14" lengthAdjust="spacing" textLength="437" x="267.5" y="367.9999">issues token transfer credentials with valid Network Access Credentials</text><line style="stroke:#000000;stroke-width:0.5;" x1="262.5" x2="709.5" y1="374.7999" y2="374.7999"/></g><!--MD5=[d8c8cfd5ca149094f5b67f9f607a5ec7]
class Token--><g id="elem_Token"><rect codeLine="74" fill="#F5F5DC" height="109.9996" id="Token" rx="2.5" ry="2.5" style="stroke:#000000;stroke-width:0.5;" width="143" x="353.5" y="829.7999"/><text fill="#000000" font-family="sans-serif" font-size="14" lengthAdjust="spacing" textLength="38" x="406" y="848.7999">Token</text><line style="stroke:#000000;stroke-width:0.5;" x1="354.5" x2="495.5" y1="856.5999" y2="856.5999"/><ellipse cx="364.5" cy="867.5999" fill="none" rx="3" ry="3" style="stroke:#038048;stroke-width:1.0;"/><text fill="#000000" font-family="sans-serif" font-size="14" lengthAdjust="spacing" textLength="35" x="373.5" y="874.5998">Value</text><ellipse cx="364.5" cy="884.3998" fill="none" rx="3" ry="3" style="stroke:#038048;stroke-width:1.0;"/><text fill="#000000" font-family="sans-serif" font-size="14" lengthAdjust="spacing" textLength="94" x="373.5" y="891.3997">Transfer Ticket</text><ellipse cx="364.5" cy="901.1997" fill="none" rx="3" ry="3" style="stroke:#038048;stroke-width:1.0;"/><text fill="#000000" font-family="sans-serif" font-size="14" lengthAdjust="spacing" textLength="117" x="373.5" y="908.1996">Transfer Signature</text><ellipse cx="364.5" cy="917.9996" fill="none" rx="3" ry="3" style="stroke:#038048;stroke-width:1.0;"/><text fill="#000000" font-family="sans-serif" font-size="14" lengthAdjust="spacing" textLength="12" x="373.5" y="924.9996">...</text><line style="stroke:#000000;stroke-width:0.5;" x1="354.5" x2="495.5" y1="931.7996" y2="931.7996"/></g><!--MD5=[cef2f0529e8693e1eb1fcdedff50b6aa]
class Briolette Online Services--><g id="elem_Briolette Online Services"><rect codeLine="82" fill="#90EE90" height="26.7999" id="Briolette Online Services" rx="2.5" ry="2.5" style="stroke:#000000;stroke-width:0.5;" width="155" x="1609.5" y="714.7999"/><text fill="#000000" font-family="sans-serif" font-size="14" lengthAdjust="spacing" textLength="149" x="1612.5" y="733.7999">Briolette Online Services</text></g><!--MD5=[cf5292343647fa49631b09ec259a6225]
link Briolette Operator to Common Server State--><g id="link_Briolette Operator_Common Server State"><path codeLine="84" d="M1505.93,76.8399 C1533.56,89.8499 1575.46,109.5899 1616.8,129.0599 " fill="none" id="Briolette Operator-to-Common Server State" style="stroke:#00008B;stroke-width:1.0;"/><polygon fill="none" points="1619.95,122.8099,1635.06,137.6599,1613.98,135.4699,1619.95,122.8099" style="stroke:#00008B;stroke-width:1.0;"/></g><!--MD5=[fb03f21ea0f9085c9e4d999feabcdffd]
link Common Server State to Network Access Credential Issuer Key--><g id="link_Common Server State_Network Access Credential Issuer Key"><path codeLine="85" d="M1750,247.8899 C1750,260.9499 1750,274.9399 1750,288.1199 " fill="none" id="Common Server State-to-Network Access Credential Issuer Key" style="stroke:#00008B;stroke-width:1.0;"/><polygon fill="none" points="1757,288.5499,1750,308.5499,1743,288.5499,1757,288.5499" style="stroke:#00008B;stroke-width:1.0;"/></g><!--MD5=[254ee44fb48738d6d79dedfac7a05ee2]
link Common Server State to Briolette Online Services--><g id="link_Common Server State_Briolette Online Services"><path codeLine="86" d="M1905.3,239.9699 C1936.51,256.5899 1965.39,278.9299 1984,308.7999 C2001.39,336.7199 1995.45,351.9699 1984,382.7999 C1930.34,527.2299 1785.95,651.6199 1720.31,702.6199 " fill="none" id="Common Server State-to-Briolette Online Services" style="stroke:#00008B;stroke-width:1.0;"/><polygon fill="none" points="1724.52,708.2099,1704.36,714.7499,1716.04,697.0699,1724.52,708.2099" style="stroke:#00008B;stroke-width:1.0;"/><text fill="#000000" font-family="sans-serif" font-size="13" lengthAdjust="spacing" textLength="59" x="1972" y="455.2999">configures</text></g><!--MD5=[0b0f68628eee3033b451ee40487ce91a]
link Briolette Operator to Client State (Epoch) Signing Key--><g id="link_Briolette Operator_Client State (Epoch) Signing Key"><path codeLine="87" d="M1458.95,76.8699 C1444.42,91.7599 1422.16,115.4699 1405,137.7999 C1369.55,183.9399 1381.95,214.8399 1334,247.7999 C1225.1,322.6499 1171.14,276.5199 1043,308.7999 C1030.13,312.0399 1016.58,315.7499 1003.38,319.5199 " fill="none" id="Briolette Operator-to-Client State (Epoch) Signing Key" style="stroke:#00008B;stroke-width:1.0;"/><polygon fill="none" points="1004.9,326.3599,983.74,325.2399,1000.98,312.9199,1004.9,326.3599" style="stroke:#00008B;stroke-width:1.0;"/></g><!--MD5=[985ffcf85f8d81b885c40e52c6ab224b]
link Epoch Data to Client State (Epoch) Signing Key--><g id="link_Epoch Data_Client State (Epoch) Signing Key"><path codeLine="88" d="M698.14,239.3299 C721.99,251.7899 748.52,265.3099 773,277.7999 C797.93,290.5199 825.52,304.6299 850.26,316.5999 " fill="none" id="Epoch Data-to-Client State (Epoch) Signing Key" style="stroke:#00008B;stroke-width:1.0;"/><polygon fill="none" points="853.47,310.3799,868.52,325.2799,847.46,323.0199,853.47,310.3799" style="stroke:#00008B;stroke-width:1.0;"/></g><!--MD5=[c8bf19b2e5f971a6491b28e0ad6d8df3]
link Client State (Epoch) Signing Key to Epoch Data--><g id="link_Client State (Epoch) Signing Key_Epoch Data"><path codeLine="95" d="M898.1,325.2799 C874.76,311.9099 839.29,293.7599 808,277.7999 C789.35,268.2799 769.51,258.1699 750,248.3899 " fill="none" id="Client State (Epoch) Signing Key-to-Epoch Data" style="stroke:#00008B;stroke-width:1.0;"/><polygon fill="none" points="746.61,254.5199,731.83,239.3299,752.85,241.9899,746.61,254.5199" style="stroke:#00008B;stroke-width:1.0;"/></g><!--MD5=[f194c9e2576be1370158ddddb76fc63d]
link Epoch Data to Token Signing Key (Mint)--><g id="link_Epoch Data_Token Signing Key (Mint)"><path codeLine="89" d="M512.64,212.5599 C412.31,231.8699 276.34,265.2599 244,308.7999 C131.72,459.9799 405.59,630.9999 529.72,698.0999 " fill="none" id="Epoch Data-to-Token Signing Key (Mint)" style="stroke:#00008B;stroke-width:1.0;"/><polygon fill="none" points="533.2,692.0199,547.57,707.5899,526.63,704.3899,533.2,692.0199" style="stroke:#00008B;stroke-width:1.0;"/></g><!--MD5=[a1046b230b87db64d6eedc4b4f91becb]
link Epoch Data to Transfer Ticket Signing Key--><g id="link_Epoch Data_Transfer Ticket Signing Key"><path codeLine="90" d="M512.78,203.7399 C399.12,215.7599 233.02,239.3299 182,277.7999 C144.58,306.0199 122.29,355.0399 109.81,393.3899 " fill="none" id="Epoch Data-to-Transfer Ticket Signing Key" style="stroke:#00008B;stroke-width:1.0;"/><polygon fill="none" points="116.52,395.4099,104.08,412.5699,103.1,391.3999,116.52,395.4099" style="stroke:#00008B;stroke-width:1.0;"/></g><!--MD5=[35ddb52d098d42ef83f48d38e078bb73]
link Transfer Ticket Signing Key to Token--><g id="link_Transfer Ticket Signing Key_Token"><path codeLine="91" d="M100.03,486.9699 C113.31,587.1299 164.9,862.0499 332.79,882.5799 " fill="none" id="Transfer Ticket Signing Key-to-Token" style="stroke:#00008B;stroke-width:1.0;"/><polygon fill="none" points="333.46,875.6099,353,883.7999,332.62,889.5899,333.46,875.6099" style="stroke:#00008B;stroke-width:1.0;"/></g><!--MD5=[917bc048cbb6d69afdb56198363b85d7]
link Epoch Data to Token Transfer Credential Issuer Key--><g id="link_Epoch Data_Token Transfer Credential Issuer Key"><path codeLine="92" d="M582.92,239.5099 C567.22,256.5699 549.3,276.0299 533.17,293.5499 " fill="none" id="Epoch Data-to-Token Transfer Credential Issuer Key" style="stroke:#00008B;stroke-width:1.0;"/><polygon fill="none" points="538.26,298.3599,519.57,308.3399,527.96,288.8799,538.26,298.3599" style="stroke:#00008B;stroke-width:1.0;"/></g><!--MD5=[e970660317da6ebeeb260e3afc3c0847]
link Token Signing Key (Mint) to Token--><g id="link_Token Signing Key (Mint)_Token"><path codeLine="93" d="M583.8,748.8499 C577.27,782.1799 559.33,847.9799 517.7,864.1499 " fill="none" id="Token Signing Key (Mint)-to-Token" style="stroke:#00008B;stroke-width:1.0;"/><polygon fill="none" points="518.94,871.0399,498,867.7999,516.39,857.2699,518.94,871.0399" style="stroke:#00008B;stroke-width:1.0;"/><text fill="#000000" font-family="sans-serif" font-size="13" lengthAdjust="spacing" textLength="29" x="577" y="792.7999">signs</text></g><!--MD5=[361d86e24e4d6662dfccd27514828c61]
link Token Transfer Credential Issuer Key to Wallet--><g id="link_Token Transfer Credential Issuer Key_Wallet"><path codeLine="94" d="M505.92,382.7999 C544.25,447.0299 634.92,575.9599 751.84,589.6199 " fill="none" id="Token Transfer Credential Issuer Key-to-Wallet" style="stroke:#00008B;stroke-width:1.0;"/><polygon fill="none" points="752.44,582.6399,772,590.7999,751.63,596.6199,752.44,582.6399" style="stroke:#00008B;stroke-width:1.0;"/></g><!--MD5=[65a94d9017f76cff4cf7cf44ae5ffaa9]
link Epoch Data to Wallet--><g id="link_Epoch Data_Wallet"><path codeLine="96" d="M677.22,239.4799 C696.2,258.9399 715.94,283.0799 728,308.7999 C781.62,423.1499 654.09,586.9499 751.86,605.1399 " fill="none" id="Epoch Data-to-Wallet" style="stroke:#00008B;stroke-width:1.0;"/><polygon fill="none" points="752.64,598.1799,772,606.7999,751.49,612.1299,752.64,598.1799" style="stroke:#00008B;stroke-width:1.0;"/></g><!--MD5=[97415c9993ac887ea62ff7cc506e729b]
link Wallet Vendor to Wallet Provisioning Credential Issuer Key--><g id="link_Wallet Vendor_Wallet Provisioning Credential Issuer Key"><path codeLine="99" d="M1468.68,209.0299 C1453.1,227.4999 1424.71,258.6599 1395,278.7999 C1383.86,286.3499 1371.72,293.3599 1359.32,299.7599 " fill="none" id="Wallet Vendor-to-Wallet Provisioning Credential Issuer Key" style="stroke:#00008B;stroke-width:1.0;"/><polygon fill="none" points="1362.09,306.1899,1341.05,308.6999,1355.94,293.6199,1362.09,306.1899" style="stroke:#00008B;stroke-width:1.0;"/></g><!--MD5=[2d4f8ba71c4cb674cec6ef85316f2322]
link Wallet Provisioning Credential Issuer Key to Wallet--><g id="link_Wallet Provisioning Credential Issuer Key_Wallet"><path codeLine="100" d="M1226.06,383.2399 C1195.55,439.7699 1127.86,543.5599 1036.23,557.2899 " fill="none" id="Wallet Provisioning Credential Issuer Key-to-Wallet" style="stroke:#00008B;stroke-width:1.0;"/><polygon fill="none" points="1036.47,564.2899,1016,558.7999,1035.42,550.3299,1036.47,564.2899" style="stroke:#00008B;stroke-width:1.0;"/></g><!--MD5=[6929b0554641299c2eb2dd2e9803fb9a]
link Wallet Vendor to Network Access Credential Issuer Key--><g id="link_Wallet Vendor_Network Access Credential Issuer Key"><path codeLine="101" d="M1507.78,208.8299 C1544.81,229.6199 1613.29,268.0599 1668.01,298.7699 " fill="none" id="Wallet Vendor-to-Network Access Credential Issuer Key" style="stroke:#00008B;stroke-width:1.0;"/><polygon fill="none" points="1671.59,292.7599,1685.6,308.6499,1664.74,304.9699,1671.59,292.7599" style="stroke:#00008B;stroke-width:1.0;"/></g><!--MD5=[eeac7a1e2bd65b5834dbd5b4019ff057]
link Wallet Vendor to Wallet--><g id="link_Wallet Vendor_Wallet"><path codeLine="102" d="M1482.29,209.0199 C1484.4,243.5599 1484.94,329.0399 1445,382.7999 C1320.81,549.9899 1236.57,603.4199 1036.09,606.6399 " fill="none" id="Wallet Vendor-to-Wallet" style="stroke:#00008B;stroke-width:1.0;"/><polygon fill="none" points="1036.05,613.6399,1016,606.7999,1035.94,599.6399,1036.05,613.6399" style="stroke:#00008B;stroke-width:1.0;"/></g><!--MD5=[2f14d3455c39c9534d1db320a2766d80]
link Wallet to Token Signing Key (Mint)--><g id="link_Wallet_Token Signing Key (Mint)"><path codeLine="103" d="M772,606.7999 C708.68,606.7999 650.04,656.9799 616.41,692.5799 " fill="none" id="Wallet-to-Token Signing Key (Mint)" style="stroke:#00008B;stroke-width:1.0;stroke-dasharray:1.0,3.0;"/><polygon fill="none" points="621.39,697.5099,602.79,707.6699,610.99,688.1299,621.39,697.5099" style="stroke:#00008B;stroke-width:1.0;"/><text fill="#000000" font-family="sans-serif" font-size="13" lengthAdjust="spacing" textLength="166" x="648" y="674.7999">may trust out-of-system mints</text></g><!--MD5=[2237bf33f99a0e786926c6b352d9c994]
link Network Access Credential Issuer Key to Wallet--><g id="link_Network Access Credential Issuer Key_Wallet"><path codeLine="104" d="M1699.48,382.8999 C1652.02,415.0599 1577.89,460.9199 1507,486.7999 C1305.15,560.4799 1241.59,573.9999 1036.01,574.7599 " fill="none" id="Network Access Credential Issuer Key-to-Wallet" style="stroke:#00008B;stroke-width:1.0;"/><polygon fill="none" points="1036.01,581.7599,1016,574.7999,1035.99,567.7599,1036.01,581.7599" style="stroke:#00008B;stroke-width:1.0;"/></g><!--MD5=[56b8adf35837d095129b0b130a3af6cf]
link Wallet to Briolette Online Services--><g id="link_Wallet_Briolette Online Services"><path codeLine="105" d="M1016,574.7999 C1253.02,574.7999 1525.68,666.3999 1636.38,707.6099 " fill="none" id="Wallet-to-Briolette Online Services" style="stroke:#00008B;stroke-width:1.0;"/><polygon fill="none" points="1638.88,701.0799,1655.12,714.6899,1633.93,714.1699,1638.88,701.0799" style="stroke:#00008B;stroke-width:1.0;"/><text fill="#000000" font-family="sans-serif" font-size="13" lengthAdjust="spacing" textLength="77" x="1539" y="674.7999">authenticates</text></g><!--MD5=[75f018cf2978a19a75afb0bf4e42fda6]
link Wallet to Token--><g id="link_Wallet_Token"><path codeLine="106" d="M772,590.7999 C694.61,590.7999 488.59,644.5499 444,707.7999 C410.87,754.7899 479.56,771.0199 497,825.7999 C503.74,846.9799 516.85,873.3299 514.49,888.1899 " fill="none" id="Wallet-to-Token" style="stroke:#00008B;stroke-width:1.0;"/><polygon fill="none" points="518.38,894.0099,498,899.7999,510.32,882.5599,518.38,894.0099" style="stroke:#00008B;stroke-width:1.0;"/><text fill="#000000" font-family="sans-serif" font-size="13" lengthAdjust="spacing" textLength="42" x="445" y="733.7999">creates</text></g><rect fill="#DDDDDD" height="104.7996" rx="7.5" ry="7.5" style="stroke:#000000;stroke-width:1.0;" width="163" x="931" y="953.7996"/><text fill="#000000" font-family="sans-serif" font-size="18" lengthAdjust="spacing" textLength="31" x="937" y="977.7994">Key</text><rect fill="#D3D3D3" height="16.7999" style="stroke:none;stroke-width:1.0;" width="151" x="937" y="983.3994"/><text fill="#000000" font-family="sans-serif" font-size="14" lengthAdjust="spacing" textLength="45" x="941" y="997.3994">Entities</text><rect fill="#ADD8E6" height="16.7999" style="stroke:none;stroke-width:1.0;" width="151" x="937" y="1000.1994"/><text fill="#000000" font-family="sans-serif" font-size="14" lengthAdjust="spacing" textLength="143" x="941" y="1014.1993">Cryptographic Key (&#128273;)</text><rect fill="#F5F5DC" height="16.7999" style="stroke:none;stroke-width:1.0;" width="151" x="937" y="1016.9993"/><text fill="#000000" font-family="sans-serif" font-size="14" lengthAdjust="spacing" textLength="30" x="941" y="1030.9992">Data</text><rect fill="#90EE90" height="16.7999" style="stroke:none;stroke-width:1.0;" width="151" x="937" y="1033.7992"/><text fill="#000000" font-family="sans-serif" font-size="14" lengthAdjust="spacing" textLength="120" x="941" y="1047.7991">Software System(s)</text><line style="stroke:#000000;stroke-width:1.0;" x1="937" x2="1088" y1="983.3994" y2="983.3994"/><line style="stroke:#000000;stroke-width:1.0;" x1="937" x2="1088" y1="1000.1994" y2="1000.1994"/><line style="stroke:#000000;stroke-width:1.0;" x1="937" x2="1088" y1="1016.9993" y2="1016.9993"/><line style="stroke:#000000;stroke-width:1.0;" x1="937" x2="1088" y1="1033.7992" y2="1033.7992"/><line style="stroke:#000000;stroke-width:1.0;" x1="937" x2="1088" y1="1050.5991" y2="1050.5991"/><line style="stroke:#000000;stroke-width:1.0;" x1="937" x2="937" y1="983.3994" y2="1050.5991"/><line style="stroke:#000000;stroke-width:1.0;" x1="1088" x2="1088" y1="983.3994" y2="1050.5991"/><!--MD5=[bbd731e237344d36846f0a833aa66714]
@startuml
skinparam shadowing false

title Trust and Configuration Hierarchy

skinparam class {
    BackgroundColor #lightblue
    ArrowColor #darkblue
    BorderColor black
}


hide members
skinparam groupInheritance 2



entity "Wallet Vendor" #lightgrey
note left: There will be many Wallet Vendors

class "Network Access Credential Issuer Key" <<🔑>> {
  issues network access credentials with valid provisioning credentials
}
show "Network Access Credential Issuer Key" members

class "Wallet Provisioning Credential Issuer Key" <<🔑>> {
  issues wallet provisioning credentials in a secured context
}
show "Wallet Provisioning Credential Issuer Key" members

class Wallet #lightgreen {
  + Wallet Provisioning Credential <<🔑>>
  + Network Access Credential <<🔑>>
  + Token Transfer Credential <<🔑>>
  + Configuration Data
}
show Wallet members




entity "Briolette Operator" #lightgrey
note left: Wallets may work across many operators

annotation "Common Server State" #beige {
 + Network Access Credential Group Public Keys
 + Epoch Data Signing Public Key
 + Epoch Data
 + Service Policies
}
show "Common Server State" members

class "Client State (Epoch) Signing Key" <<🔑>> {
}

annotation "Epoch Data" #beige {
  + Current System Epoch (time)
  + System-wide trusted public keys
  + Revocation data
}
show "Epoch Data" members

class "Token Signing Key (Mint)" <<🔑>>

class "Transfer Ticket Signing Key" <<🔑>> {
  signs tickets
}
show "Transfer Ticket Signing Key" members

class "Token Transfer Credential Issuer Key" <<🔑>> {
  issues token transfer credentials with valid Network Access Credentials
}
show "Token Transfer Credential Issuer Key" members

annotation "Token" #beige {
 + Value
 + Transfer Ticket
 + Transfer Signature
 + ...
}
show Token members

class "Briolette Online Services" #lightgreen

"Briolette Operator" - -|> "Common Server State"
"Common Server State" - -|> "Network Access Credential Issuer Key"
"Common Server State" - -|> "Briolette Online Services" : configures
"Briolette Operator" - -|> "Client State (Epoch) Signing Key"
"Epoch Data" - -|> "Client State (Epoch) Signing Key"
"Epoch Data" - -|> "Token Signing Key (Mint)"
"Epoch Data" - -|> "Transfer Ticket Signing Key"
"Transfer Ticket Signing Key" - -|> "Token::Transfer Ticket"
"Epoch Data" - -|> "Token Transfer Credential Issuer Key"
"Token Signing Key (Mint)" - -|> "Token::Value" : signs
"Token Transfer Credential Issuer Key" - -|> "Wallet::Token Transfer Credential"
"Client State (Epoch) Signing Key" - -|> "Epoch Data"
"Epoch Data" - -|> "Wallet::Configuration Data"


"Wallet Vendor" - -|> "Wallet Provisioning Credential Issuer Key"
"Wallet Provisioning Credential Issuer Key" - -|> "Wallet::Wallet Provisioning Credential"
"Wallet Vendor" - -|> "Network Access Credential Issuer Key"
"Wallet Vendor" - -|> "Wallet::Configuration Data"
"Wallet::Configuration Data" -[dotted]-|> "Token Signing Key (Mint)" : may trust out-of-system mints
"Network Access Credential Issuer Key" - -|> "Wallet::Network Access Credential"
"Wallet::Network Access Credential" - -|> "Briolette Online Services" : authenticates
"Wallet::Token Transfer Credential" - -|> "Token::Transfer Signature" : creates

hide <<🔑>> circle
hide class circle
hide annotation circle


legend 
    <size:18>Key</size>
    |<#lightgrey> Entities |
    |<#lightblue> Cryptographic Key (🔑) |
    |<#beige> Data |
    |<#lightgreen> Software System(s) |
endlegend
@enduml

PlantUML version 1.2022.5(Sat Apr 30 05:55:52 CDT 2022)
(GPL source distribution)
Java Runtime: OpenJDK Runtime Environment
JVM: OpenJDK 64-Bit Server VM
Default Encoding: UTF-8
Language: en
Country: US
--></g></svg>