<?xml version="1.0" encoding="us-ascii" standalone="no"?><svg xmlns="http://www.w3.org/2000/svg" xmlns:xlink="http://www.w3.org/1999/xlink" contentStyleType="text/css" height="1069px" preserveAspectRatio="none" style="width:2301px;height:1069px;background:#FFFFFF;" version="1.1" viewBox="0 0 2301 1069" width="2301px" zoomAndPan="magnify"><defs/><g><text fill="#000000" font-family="sans-serif" font-size="14" font-weight="bold" lengthAdjust="spacing" textLength="279" x="1004" y="22.9951">Trust and Configuration Hierarchy</text><!--class Wallet Vendor--><g id="elem_Wallet Vendor"><rect codeLine="18" fill="#D3D3D3" height="32" id="Wallet Vendor" rx="2.5" ry="2.5" style="stroke:#000000;stroke-width:0.5;" width="134" x="1606" y="174.7969"/><ellipse cx="1621" cy="190.7969" fill="#ADD1B2" rx="11" ry="11" style="stroke:#181818;stroke-width:1.0;"/><path d="M1619.7969,191.6719 L1621.25,191.6719 L1621.25,191.7813 C1621.25,192.1875 1621.2813,192.3438 1621.3594,192.5 C1621.5156,192.75 1621.7969,192.9063 1622.0938,192.9063 C1622.3438,192.9063 1622.6094,192.7656 1622.7656,192.5469 C1622.8906,192.3906 1622.9219,192.2344 1622.9219,191.7813 L1622.9219,189.8594 C1622.9219,189.7031 1622.9219,189.6563 1622.9063,189.5 C1622.8438,189.0313 1622.5313,188.7188 1622.0781,188.7188 C1621.8281,188.7188 1621.5625,188.8594 1621.3906,189.0781 C1621.2813,189.25 1621.25,189.4063 1621.25,189.8594 L1621.25,189.9844 L1619.7969,189.9844 L1619.7969,187.5781 L1623.7813,187.5781 L1623.7813,188.4375 C1623.7813,188.8438 1623.8125,189.0156 1623.8906,189.1719 C1624.0625,189.4219 1624.3438,189.5781 1624.625,189.5781 C1624.8906,189.5781 1625.1563,189.4375 1625.3281,189.2188 C1625.4375,189.0469 1625.4688,188.9063 1625.4688,188.4375 L1625.4688,185.8906 L1617.8438,185.8906 C1617.4063,185.8906 1617.2813,185.9063 1617.125,186 C1616.875,186.1563 1616.7188,186.4531 1616.7188,186.7344 C1616.7188,187.0156 1616.8594,187.2656 1617.0781,187.4375 C1617.2344,187.5469 1617.4219,187.5781 1617.8438,187.5781 L1618.0938,187.5781 L1618.0938,194.0938 L1617.8438,194.0938 C1617.4375,194.0938 1617.2813,194.1094 1617.125,194.2188 C1616.875,194.3906 1616.7188,194.6563 1616.7188,194.9531 C1616.7188,195.2188 1616.8594,195.4688 1617.0781,195.625 C1617.2188,195.75 1617.4531,195.7969 1617.8438,195.7969 L1625.8438,195.7969 L1625.8438,193.2188 C1625.8438,192.7813 1625.8125,192.6406 1625.7344,192.4844 C1625.5625,192.2344 1625.2813,192.0781 1625,192.0781 C1624.7344,192.0781 1624.4688,192.1875 1624.2969,192.4375 C1624.1875,192.5938 1624.1563,192.7344 1624.1563,193.2188 L1624.1563,194.0938 L1619.7969,194.0938 L1619.7969,191.6719 Z " fill="#000000"/><text fill="#000000" font-family="sans-serif" font-size="14" lengthAdjust="spacing" textLength="102" x="1635" y="195.6436">Wallet Vendor</text></g><g id="elem_GMN3"><path d="M1256,178.2969 L1256,203.4297 A0,0 0 0 0 1256,203.4297 L1500,203.4297 A0,0 0 0 0 1500,203.4297 L1500,196.2969 L1605.82,190.7969 L1500,188.2969 L1500,188.2969 L1490,178.2969 L1256,178.2969 A0,0 0 0 0 1256,178.2969 " fill="#FEFFDD" style="stroke:#181818;stroke-width:0.5;"/><path d="M1490,178.2969 L1490,188.2969 L1500,188.2969 L1490,178.2969 " fill="#FEFFDD" style="stroke:#181818;stroke-width:0.5;"/><text fill="#000000" font-family="sans-serif" font-size="13" lengthAdjust="spacing" textLength="223" x="1262" y="195.3638">There will be many Wallet Vendors</text></g><!--class Network Access Credential Registrar Key--><g id="elem_Network Access Credential Registrar Key"><rect codeLine="21" fill="#ADD8E6" height="72.5625" id="Network Access Credential Registrar Key" rx="2.5" ry="2.5" style="stroke:#000000;stroke-width:0.5;" width="501" x="1726.5" y="305.2969"/><text fill="#000000" font-family="sans-serif" font-size="12" font-style="italic" lengthAdjust="spacing" textLength="29" x="1962.5" y="321.4355">&#171;&#128273;&#187;</text><text fill="#000000" font-family="sans-serif" font-size="14" lengthAdjust="spacing" textLength="294" x="1830" y="337.2607">Network Access Credential Registrar Key</text><line style="stroke:#000000;stroke-width:0.5;" x1="1727.5" x2="2226.5" y1="345.5625" y2="345.5625"/><text fill="#000000" font-family="sans-serif" font-size="14" lengthAdjust="spacing" textLength="489" x="1732.5" y="362.5576">issues network access credentials with valid provisioning credentials</text><line style="stroke:#000000;stroke-width:0.5;" x1="1727.5" x2="2226.5" y1="369.8594" y2="369.8594"/></g><!--class Wallet Provisioning Credential Registrar Key--><g id="elem_Wallet Provisioning Credential Registrar Key"><rect codeLine="26" fill="#ADD8E6" height="72.5625" id="Wallet Provisioning Credential Registrar Key" rx="2.5" ry="2.5" style="stroke:#000000;stroke-width:0.5;" width="427" x="1192.5" y="305.2969"/><text fill="#000000" font-family="sans-serif" font-size="12" font-style="italic" lengthAdjust="spacing" textLength="29" x="1391.5" y="321.4355">&#171;&#128273;&#187;</text><text fill="#000000" font-family="sans-serif" font-size="14" lengthAdjust="spacing" textLength="317" x="1247.5" y="337.2607">Wallet Provisioning Credential Registrar Key</text><line style="stroke:#000000;stroke-width:0.5;" x1="1193.5" x2="1618.5" y1="345.5625" y2="345.5625"/><text fill="#000000" font-family="sans-serif" font-size="14" lengthAdjust="spacing" textLength="415" x="1198.5" y="362.5576">issues wallet provisioning credentials in a secured context</text><line style="stroke:#000000;stroke-width:0.5;" x1="1193.5" x2="1618.5" y1="369.8594" y2="369.8594"/></g><!--class Wallet--><g id="elem_Wallet"><rect codeLine="31" fill="#90EE90" height="107.4844" id="Wallet" rx="2.5" ry="2.5" style="stroke:#000000;stroke-width:0.5;" width="280" x="860" y="515.2969"/><text fill="#000000" font-family="sans-serif" font-size="14" lengthAdjust="spacing" textLength="46" x="977" y="533.292">Wallet</text><line style="stroke:#000000;stroke-width:0.5;" x1="861" x2="1139" y1="541.5938" y2="541.5938"/><ellipse cx="871" cy="555.2422" fill="none" rx="3" ry="3" style="stroke:#038048;stroke-width:1.0;"/><text fill="#000000" font-family="sans-serif" font-size="14" lengthAdjust="spacing" textLength="254" x="880" y="558.5889">Wallet Provisioning Credential &#171;&#128273;&#187;</text><ellipse cx="871" cy="571.5391" fill="none" rx="3" ry="3" style="stroke:#038048;stroke-width:1.0;"/><text fill="#000000" font-family="sans-serif" font-size="14" lengthAdjust="spacing" textLength="231" x="880" y="574.8857">Network Access Credential &#171;&#128273;&#187;</text><ellipse cx="871" cy="587.8359" fill="none" rx="3" ry="3" style="stroke:#038048;stroke-width:1.0;"/><text fill="#000000" font-family="sans-serif" font-size="14" lengthAdjust="spacing" textLength="226" x="880" y="591.1826">Token Transfer Credential &#171;&#128273;&#187;</text><ellipse cx="871" cy="604.1328" fill="none" rx="3" ry="3" style="stroke:#038048;stroke-width:1.0;"/><text fill="#000000" font-family="sans-serif" font-size="14" lengthAdjust="spacing" textLength="136" x="880" y="607.4795">Configuration Data</text><line style="stroke:#000000;stroke-width:0.5;" x1="861" x2="1139" y1="614.7813" y2="614.7813"/></g><!--class Briolette Operator--><g id="elem_Briolette Operator"><rect codeLine="42" fill="#D3D3D3" height="32" id="Briolette Operator" rx="2.5" ry="2.5" style="stroke:#000000;stroke-width:0.5;" width="167" x="1585.5" y="44.2969"/><ellipse cx="1600.5" cy="60.2969" fill="#ADD1B2" rx="11" ry="11" style="stroke:#181818;stroke-width:1.0;"/><path d="M1599.2969,61.1719 L1600.75,61.1719 L1600.75,61.2813 C1600.75,61.6875 1600.7813,61.8438 1600.8594,62 C1601.0156,62.25 1601.2969,62.4063 1601.5938,62.4063 C1601.8438,62.4063 1602.1094,62.2656 1602.2656,62.0469 C1602.3906,61.8906 1602.4219,61.7344 1602.4219,61.2813 L1602.4219,59.3594 C1602.4219,59.2031 1602.4219,59.1563 1602.4063,59 C1602.3438,58.5313 1602.0313,58.2188 1601.5781,58.2188 C1601.3281,58.2188 1601.0625,58.3594 1600.8906,58.5781 C1600.7813,58.75 1600.75,58.9063 1600.75,59.3594 L1600.75,59.4844 L1599.2969,59.4844 L1599.2969,57.0781 L1603.2813,57.0781 L1603.2813,57.9375 C1603.2813,58.3438 1603.3125,58.5156 1603.3906,58.6719 C1603.5625,58.9219 1603.8438,59.0781 1604.125,59.0781 C1604.3906,59.0781 1604.6563,58.9375 1604.8281,58.7188 C1604.9375,58.5469 1604.9688,58.4063 1604.9688,57.9375 L1604.9688,55.3906 L1597.3438,55.3906 C1596.9063,55.3906 1596.7813,55.4063 1596.625,55.5 C1596.375,55.6563 1596.2188,55.9531 1596.2188,56.2344 C1596.2188,56.5156 1596.3594,56.7656 1596.5781,56.9375 C1596.7344,57.0469 1596.9219,57.0781 1597.3438,57.0781 L1597.5938,57.0781 L1597.5938,63.5938 L1597.3438,63.5938 C1596.9375,63.5938 1596.7813,63.6094 1596.625,63.7188 C1596.375,63.8906 1596.2188,64.1563 1596.2188,64.4531 C1596.2188,64.7188 1596.3594,64.9688 1596.5781,65.125 C1596.7188,65.25 1596.9531,65.2969 1597.3438,65.2969 L1605.3438,65.2969 L1605.3438,62.7188 C1605.3438,62.2813 1605.3125,62.1406 1605.2344,61.9844 C1605.0625,61.7344 1604.7813,61.5781 1604.5,61.5781 C1604.2344,61.5781 1603.9688,61.6875 1603.7969,61.9375 C1603.6875,62.0938 1603.6563,62.2344 1603.6563,62.7188 L1603.6563,63.5938 L1599.2969,63.5938 L1599.2969,61.1719 Z " fill="#000000"/><text fill="#000000" font-family="sans-serif" font-size="14" lengthAdjust="spacing" textLength="135" x="1614.5" y="65.1436">Briolette Operator</text></g><g id="elem_GMN10"><path d="M1261.5,47.7969 L1261.5,72.9297 A0,0 0 0 0 1261.5,72.9297 L1550.5,72.9297 A0,0 0 0 0 1550.5,72.9297 L1550.5,65.7969 L1585.29,60.2969 L1550.5,57.7969 L1550.5,57.7969 L1540.5,47.7969 L1261.5,47.7969 A0,0 0 0 0 1261.5,47.7969 " fill="#FEFFDD" style="stroke:#181818;stroke-width:0.5;"/><path d="M1540.5,47.7969 L1540.5,57.7969 L1550.5,57.7969 L1540.5,47.7969 " fill="#FEFFDD" style="stroke:#181818;stroke-width:0.5;"/><text fill="#000000" font-family="sans-serif" font-size="13" lengthAdjust="spacing" textLength="268" x="1267.5" y="64.8638">Wallets may work across many operators</text></g><!--class Common Server State--><g id="elem_Common Server State"><rect codeLine="45" fill="#F5F5DC" height="107.4844" id="Common Server State" rx="2.5" ry="2.5" style="stroke:#000000;stroke-width:0.5;" width="352" x="1801" y="137.2969"/><text fill="#000000" font-family="sans-serif" font-size="14" lengthAdjust="spacing" textLength="160" x="1897" y="155.292">Common Server State</text><line style="stroke:#000000;stroke-width:0.5;" x1="1802" x2="2152" y1="163.5938" y2="163.5938"/><ellipse cx="1812" cy="177.2422" fill="none" rx="3" ry="3" style="stroke:#038048;stroke-width:1.0;"/><text fill="#000000" font-family="sans-serif" font-size="14" lengthAdjust="spacing" textLength="326" x="1821" y="180.5889">Network Access Credential Group Public Keys</text><ellipse cx="1812" cy="193.5391" fill="none" rx="3" ry="3" style="stroke:#038048;stroke-width:1.0;"/><text fill="#000000" font-family="sans-serif" font-size="14" lengthAdjust="spacing" textLength="218" x="1821" y="196.8857">Epoch Data Signing Public Key</text><ellipse cx="1812" cy="209.8359" fill="none" rx="3" ry="3" style="stroke:#038048;stroke-width:1.0;"/><text fill="#000000" font-family="sans-serif" font-size="14" lengthAdjust="spacing" textLength="83" x="1821" y="213.1826">Epoch Data</text><ellipse cx="1812" cy="226.1328" fill="none" rx="3" ry="3" style="stroke:#038048;stroke-width:1.0;"/><text fill="#000000" font-family="sans-serif" font-size="14" lengthAdjust="spacing" textLength="111" x="1821" y="229.4795">Service Policies</text><line style="stroke:#000000;stroke-width:0.5;" x1="1802" x2="2152" y1="236.7813" y2="236.7813"/></g><!--class Client State (Epoch) Signing Key--><g id="elem_Client State (Epoch) Signing Key"><rect codeLine="53" fill="#ADD8E6" height="40.2656" id="Client State (Epoch) Signing Key" rx="2.5" ry="2.5" style="stroke:#000000;stroke-width:0.5;" width="240" x="917" y="321.7969"/><text fill="#000000" font-family="sans-serif" font-size="12" font-style="italic" lengthAdjust="spacing" textLength="29" x="1022.5" y="337.9355">&#171;&#128273;&#187;</text><text fill="#000000" font-family="sans-serif" font-size="14" lengthAdjust="spacing" textLength="234" x="920" y="353.7607">Client State (Epoch) Signing Key</text></g><!--class Epoch Data--><g id="elem_Epoch Data"><rect codeLine="56" fill="#F5F5DC" height="91.1875" id="Epoch Data" rx="2.5" ry="2.5" style="stroke:#000000;stroke-width:0.5;" width="261" x="654.5" y="145.2969"/><text fill="#000000" font-family="sans-serif" font-size="14" lengthAdjust="spacing" textLength="83" x="743.5" y="163.292">Epoch Data</text><line style="stroke:#000000;stroke-width:0.5;" x1="655.5" x2="914.5" y1="171.5938" y2="171.5938"/><ellipse cx="665.5" cy="185.2422" fill="none" rx="3" ry="3" style="stroke:#038048;stroke-width:1.0;"/><text fill="#000000" font-family="sans-serif" font-size="14" lengthAdjust="spacing" textLength="235" x="674.5" y="188.5889">System-wide trusted public keys</text><ellipse cx="665.5" cy="201.5391" fill="none" rx="3" ry="3" style="stroke:#038048;stroke-width:1.0;"/><text fill="#000000" font-family="sans-serif" font-size="14" lengthAdjust="spacing" textLength="117" x="674.5" y="204.8857">Revocation data</text><line style="stroke:#000000;stroke-width:0.5;" x1="655.5" x2="914.5" y1="212.1875" y2="212.1875"/><ellipse cx="665.5" cy="225.8359" fill="#84BE84" rx="3" ry="3" style="stroke:#038048;stroke-width:1.0;"/><text fill="#000000" font-family="sans-serif" font-size="14" lengthAdjust="spacing" textLength="210" x="674.5" y="229.1826">Current System Epoch (time)</text></g><!--class Token Signing Key (Mint)--><g id="elem_Token Signing Key (Mint)"><rect codeLine="63" fill="#ADD8E6" height="40.2656" id="Token Signing Key (Mint)" rx="2.5" ry="2.5" style="stroke:#000000;stroke-width:0.5;" width="185" x="633.5" y="703.2969"/><text fill="#000000" font-family="sans-serif" font-size="12" font-style="italic" lengthAdjust="spacing" textLength="29" x="711.5" y="719.4355">&#171;&#128273;&#187;</text><text fill="#000000" font-family="sans-serif" font-size="14" lengthAdjust="spacing" textLength="179" x="636.5" y="735.2607">Token Signing Key (Mint)</text></g><!--class Transfer Ticket Signing Key--><g id="elem_Transfer Ticket Signing Key"><rect codeLine="65" fill="#ADD8E6" height="72.5625" id="Transfer Ticket Signing Key" rx="2.5" ry="2.5" style="stroke:#000000;stroke-width:0.5;" width="204" x="7" y="408.2969"/><text fill="#000000" font-family="sans-serif" font-size="12" font-style="italic" lengthAdjust="spacing" textLength="29" x="94.5" y="424.4355">&#171;&#128273;&#187;</text><text fill="#000000" font-family="sans-serif" font-size="14" lengthAdjust="spacing" textLength="198" x="10" y="440.2607">Transfer Ticket Signing Key</text><line style="stroke:#000000;stroke-width:0.5;" x1="8" x2="210" y1="448.5625" y2="448.5625"/><text fill="#000000" font-family="sans-serif" font-size="14" lengthAdjust="spacing" textLength="91" x="13" y="465.5576">signs tickets</text><line style="stroke:#000000;stroke-width:0.5;" x1="8" x2="210" y1="472.8594" y2="472.8594"/></g><!--class Token Transfer Credential Registrar Key--><g id="elem_Token Transfer Credential Registrar Key"><rect codeLine="70" fill="#ADD8E6" height="72.5625" id="Token Transfer Credential Registrar Key" rx="2.5" ry="2.5" style="stroke:#000000;stroke-width:0.5;" width="523" x="287.5" y="305.2969"/><text fill="#000000" font-family="sans-serif" font-size="12" font-style="italic" lengthAdjust="spacing" textLength="29" x="534.5" y="321.4355">&#171;&#128273;&#187;</text><text fill="#000000" font-family="sans-serif" font-size="14" lengthAdjust="spacing" textLength="289" x="404.5" y="337.2607">Token Transfer Credential Registrar Key</text><line style="stroke:#000000;stroke-width:0.5;" x1="288.5" x2="809.5" y1="345.5625" y2="345.5625"/><text fill="#000000" font-family="sans-serif" font-size="14" lengthAdjust="spacing" textLength="511" x="293.5" y="362.5576">issues token transfer credentials with valid Network Access Credentials</text><line style="stroke:#000000;stroke-width:0.5;" x1="288.5" x2="809.5" y1="369.8594" y2="369.8594"/></g><!--class Token--><g id="elem_Token"><rect codeLine="75" fill="#F5F5DC" height="107.4844" id="Token" rx="2.5" ry="2.5" style="stroke:#000000;stroke-width:0.5;" width="159" x="467.5" y="824.2969"/><text fill="#000000" font-family="sans-serif" font-size="14" lengthAdjust="spacing" textLength="45" x="524.5" y="842.292">Token</text><line style="stroke:#000000;stroke-width:0.5;" x1="468.5" x2="625.5" y1="850.5938" y2="850.5938"/><ellipse cx="478.5" cy="864.2422" fill="none" rx="3" ry="3" style="stroke:#038048;stroke-width:1.0;"/><text fill="#000000" font-family="sans-serif" font-size="14" lengthAdjust="spacing" textLength="39" x="487.5" y="867.5889">Value</text><ellipse cx="478.5" cy="880.5391" fill="none" rx="3" ry="3" style="stroke:#038048;stroke-width:1.0;"/><text fill="#000000" font-family="sans-serif" font-size="14" lengthAdjust="spacing" textLength="110" x="487.5" y="883.8857">Transfer Ticket</text><ellipse cx="478.5" cy="896.8359" fill="none" rx="3" ry="3" style="stroke:#038048;stroke-width:1.0;"/><text fill="#000000" font-family="sans-serif" font-size="14" lengthAdjust="spacing" textLength="133" x="487.5" y="900.1826">Transfer Signature</text><ellipse cx="478.5" cy="913.1328" fill="none" rx="3" ry="3" style="stroke:#038048;stroke-width:1.0;"/><text fill="#000000" font-family="sans-serif" font-size="14" lengthAdjust="spacing" textLength="15" x="487.5" y="916.4795">...</text><line style="stroke:#000000;stroke-width:0.5;" x1="468.5" x2="625.5" y1="923.7813" y2="923.7813"/></g><!--class Briolette Online Services--><g id="elem_Briolette Online Services"><rect codeLine="83" fill="#90EE90" height="26.2969" id="Briolette Online Services" rx="2.5" ry="2.5" style="stroke:#000000;stroke-width:0.5;" width="185" x="1547.5" y="710.2969"/><text fill="#000000" font-family="sans-serif" font-size="14" lengthAdjust="spacing" textLength="179" x="1550.5" y="728.292">Briolette Online Services</text></g><!--link Briolette Operator to Common Server State--><g id="link_Briolette Operator_Common Server State"><path codeLine="85" d="M1705.24,76.4149 C1736.96,89.6519 1785.23,109.7899 1832.33,129.4399 " fill="none" id="Briolette Operator-to-Common Server State" style="stroke:#00008B;stroke-width:1.0;"/><polygon fill="none" points="1835.22,123.0609,1850.98,137.2219,1829.83,135.9809,1835.22,123.0609" style="stroke:#00008B;stroke-width:1.0;"/></g><!--link Common Server State to Network Access Credential Registrar Key--><g id="link_Common Server State_Network Access Credential Registrar Key"><path codeLine="86" d="M1977,244.3289 C1977,257.3679 1977,271.3929 1977,284.5999 " fill="none" id="Common Server State-to-Network Access Credential Registrar Key" style="stroke:#00008B;stroke-width:1.0;"/><polygon fill="none" points="1984,285.0719,1977,305.0719,1970,285.0719,1984,285.0719" style="stroke:#00008B;stroke-width:1.0;"/></g><!--link Common Server State to Briolette Online Services--><g id="link_Common Server State_Briolette Online Services"><path codeLine="87" d="M2153.26,232.1349 C2189.42,248.7699 2223.09,272.2299 2245,305.2969 C2262.92,332.3449 2261.31,350.2529 2245,378.2969 C2129.27,577.2239 1850.84,670.5679 1715.88,705.3199 " fill="none" id="Common Server State-to-Briolette Online Services" style="stroke:#00008B;stroke-width:1.0;"/><polygon fill="none" points="1717.37,712.1629,1696.27,710.2149,1713.98,698.5789,1717.37,712.1629" style="stroke:#00008B;stroke-width:1.0;"/><text fill="#000000" font-family="sans-serif" font-size="13" lengthAdjust="spacing" textLength="67" x="2226" y="449.3638">configures</text></g><!--link Briolette Operator to Client State (Epoch) Signing Key--><g id="link_Briolette Operator_Client State (Epoch) Signing Key"><path codeLine="88" d="M1650.46,76.5089 C1633.25,91.1239 1607.41,114.3189 1588,137.2969 C1551.17,180.8919 1564.72,212.9849 1517,244.2969 C1387.91,329.0059 1325.87,272.4849 1175,305.2969 C1159.28,308.7169 1142.63,312.6899 1126.55,316.7159 " fill="none" id="Briolette Operator-to-Client State (Epoch) Signing Key" style="stroke:#00008B;stroke-width:1.0;"/><polygon fill="none" points="1128.07,323.5529,1106.96,321.7109,1124.61,309.9869,1128.07,323.5529" style="stroke:#00008B;stroke-width:1.0;"/></g><!--link Epoch Data to Client State (Epoch) Signing Key--><g id="link_Epoch Data_Client State (Epoch) Signing Key"><path codeLine="89" d="M848.484,236.2999 C888.29,260.8219 939.055,290.5489 978.01,312.0169 " fill="none" id="Epoch Data-to-Client State (Epoch) Signing Key" style="stroke:#00008B;stroke-width:1.0;"/><polygon fill="none" points="981.579,305.9899,995.811,321.6879,974.896,318.2919,981.579,305.9899" style="stroke:#00008B;stroke-width:1.0;"/></g><!--link Client State (Epoch) Signing Key to Epoch Data--><g id="link_Client State (Epoch) Signing Key_Epoch Data"><path codeLine="96" d="M1014.07,321.6879 C985.636,302.7259 936.182,272.7619 890.393,246.3889 " fill="none" id="Client State (Epoch) Signing Key-to-Epoch Data" style="stroke:#00008B;stroke-width:1.0;"/><polygon fill="none" points="886.632,252.3029,872.743,236.2999,893.58,240.1489,886.632,252.3029" style="stroke:#00008B;stroke-width:1.0;"/></g><!--link Epoch Data to Token Signing Key (Mint)--><g id="link_Epoch Data_Token Signing Key (Mint)"><path codeLine="90" d="M654.286,202.2749 C517.883,216.2429 317.35,246.3749 270,305.2969 C134.934,473.3709 493.043,634.5739 653.177,696.0909 " fill="none" id="Epoch Data-to-Token Signing Key (Mint)" style="stroke:#00008B;stroke-width:1.0;"/><polygon fill="none" points="655.901,689.6379,672.13,703.2619,650.947,702.7319,655.901,689.6379" style="stroke:#00008B;stroke-width:1.0;"/></g><!--link Epoch Data to Transfer Ticket Signing Key--><g id="link_Epoch Data_Transfer Ticket Signing Key"><path codeLine="91" d="M654.304,197.4089 C507.009,205.9679 278.847,226.6459 208,274.2969 C167.786,301.3449 141.7,350.6479 126.455,389.1339 " fill="none" id="Epoch Data-to-Transfer Ticket Signing Key" style="stroke:#00008B;stroke-width:1.0;"/><polygon fill="none" points="132.947,391.7609,119.454,408.0989,119.814,386.9119,132.947,391.7609" style="stroke:#00008B;stroke-width:1.0;"/></g><!--link Transfer Ticket Signing Key to Token--><g id="link_Transfer Ticket Signing Key_Token"><path codeLine="92" d="M119.334,481.5999 C150.628,581.8959 254.233,859.5187 446.84,877.844 " fill="none" id="Transfer Ticket Signing Key-to-Token" style="stroke:#00008B;stroke-width:1.0;"/><polygon fill="none" points="447.353,870.8604,467,878.7969,446.692,884.8447,447.353,870.8604" style="stroke:#00008B;stroke-width:1.0;"/></g><!--link Epoch Data to Token Transfer Credential Registrar Key--><g id="link_Epoch Data_Token Transfer Credential Registrar Key"><path codeLine="93" d="M714.512,236.2999 C685.469,254.6369 651.815,275.8839 622.469,294.4119 " fill="none" id="Epoch Data-to-Token Transfer Credential Registrar Key" style="stroke:#00008B;stroke-width:1.0;"/><polygon fill="none" points="625.944,300.4959,605.295,305.2549,618.47,288.6579,625.944,300.4959" style="stroke:#00008B;stroke-width:1.0;"/></g><!--link Token Signing Key (Mint) to Token--><g id="link_Token Signing Key (Mint)_Token"><path codeLine="94" d="M721.888,743.5549 C713.662,776.9279 692.059,843.4705 647.931,859.3409 " fill="none" id="Token Signing Key (Mint)-to-Token" style="stroke:#00008B;stroke-width:1.0;"/><polygon fill="none" points="648.902,866.2769,628,862.7969,646.51,852.4827,648.902,866.2769" style="stroke:#00008B;stroke-width:1.0;"/><text fill="#000000" font-family="sans-serif" font-size="13" lengthAdjust="spacing" textLength="33" x="713" y="786.3638">signs</text></g><!--link Token Transfer Credential Registrar Key to Wallet--><g id="link_Token Transfer Credential Registrar Key_Wallet"><path codeLine="95" d="M571.223,378.3919 C614.136,442.4599 715.186,571.7739 838.948,584.7419 " fill="none" id="Token Transfer Credential Registrar Key-to-Wallet" style="stroke:#00008B;stroke-width:1.0;"/><polygon fill="none" points="839.395,577.7559,859,585.7969,838.66,591.7369,839.395,577.7559" style="stroke:#00008B;stroke-width:1.0;"/></g><!--link Epoch Data to Wallet--><g id="link_Epoch Data_Wallet"><path codeLine="97" d="M805.005,236.5179 C813.4,257.0799 822.478,282.0269 828,305.2969 C856.955,427.3169 740.563,583.8729 838.889,601.2159 " fill="none" id="Epoch Data-to-Wallet" style="stroke:#00008B;stroke-width:1.0;"/><polygon fill="none" points="839.61,594.2509,859,602.7969,838.513,608.2079,839.61,594.2509" style="stroke:#00008B;stroke-width:1.0;"/></g><!--link Wallet Vendor to Wallet Provisioning Credential Registrar Key--><g id="link_Wallet Vendor_Wallet Provisioning Credential Registrar Key"><path codeLine="100" d="M1659.35,206.9099 C1642.15,225.2089 1610.94,255.9739 1579,275.2969 C1565.77,283.3039 1551.39,290.6169 1536.76,297.2129 " fill="none" id="Wallet Vendor-to-Wallet Provisioning Credential Registrar Key" style="stroke:#00008B;stroke-width:1.0;"/><polygon fill="none" points="1539.32,303.7349,1518.18,305.1839,1533.8,290.8679,1539.32,303.7349" style="stroke:#00008B;stroke-width:1.0;"/></g><!--link Wallet Provisioning Credential Registrar Key to Wallet--><g id="link_Wallet Provisioning Credential Registrar Key_Wallet"><path codeLine="101" d="M1383.89,378.5899 C1346.06,435.1449 1263.04,540.0709 1160.97,552.5699 " fill="none" id="Wallet Provisioning Credential Registrar Key-to-Wallet" style="stroke:#00008B;stroke-width:1.0;"/><polygon fill="none" points="1161.39,559.5569,1141,553.7969,1160.53,545.5829,1161.39,559.5569" style="stroke:#00008B;stroke-width:1.0;"/></g><!--link Wallet Vendor to Network Access Credential Registrar Key--><g id="link_Wallet Vendor_Network Access Credential Registrar Key"><path codeLine="102" d="M1703.82,206.9039 C1746.25,227.6999 1824.43,266.0179 1886.32,296.3499 " fill="none" id="Wallet Vendor-to-Network Access Credential Registrar Key" style="stroke:#00008B;stroke-width:1.0;"/><polygon fill="none" points="1889.65,290.1889,1904.53,305.2769,1883.49,302.7599,1889.65,290.1889" style="stroke:#00008B;stroke-width:1.0;"/></g><!--link Wallet Vendor to Wallet--><g id="link_Wallet Vendor_Wallet"><path codeLine="103" d="M1674.43,206.9759 C1676.85,241.3939 1677.97,326.3999 1637,378.2969 C1491.32,562.8489 1388.91,600.7139 1161.23,602.7109 " fill="none" id="Wallet Vendor-to-Wallet" style="stroke:#00008B;stroke-width:1.0;"/><polygon fill="none" points="1161.03,609.7119,1141,602.7969,1160.97,595.7119,1161.03,609.7119" style="stroke:#00008B;stroke-width:1.0;"/></g><!--link Wallet to Token Signing Key (Mint)--><g id="link_Wallet_Token Signing Key (Mint)"><path codeLine="104" d="M859,602.7969 C808.743,602.7969 768.858,650.5929 746.328,685.7299 " fill="none" id="Wallet-to-Token Signing Key (Mint)" style="stroke:#00008B;stroke-width:1.0;stroke-dasharray:1.0,3.0;"/><polygon fill="none" points="752.197,689.5529,735.902,703.0969,740.194,682.3469,752.197,689.5529" style="stroke:#00008B;stroke-width:1.0;"/><text fill="#000000" font-family="sans-serif" font-size="13" lengthAdjust="spacing" textLength="199" x="767" y="669.3638">may trust out-of-system mints</text></g><!--link Network Access Credential Registrar Key to Wallet--><g id="link_Network Access Credential Registrar Key_Wallet"><path codeLine="105" d="M1918.76,378.4099 C1864,410.2749 1778.73,455.7789 1699,481.2969 C1466.39,555.7439 1395.93,569.0949 1161.19,569.7689 " fill="none" id="Network Access Credential Registrar Key-to-Wallet" style="stroke:#00008B;stroke-width:1.0;"/><polygon fill="none" points="1161.01,576.7689,1141,569.7969,1160.99,562.7689,1161.01,576.7689" style="stroke:#00008B;stroke-width:1.0;"/></g><!--link Wallet to Briolette Online Services--><g id="link_Wallet_Briolette Online Services"><path codeLine="106" d="M1141,569.7969 C1318.19,569.7969 1515.92,658.8219 1599.36,700.8329 " fill="none" id="Wallet-to-Briolette Online Services" style="stroke:#00008B;stroke-width:1.0;"/><polygon fill="none" points="1602.78,694.7179,1617.38,710.0749,1596.39,707.1739,1602.78,694.7179" style="stroke:#00008B;stroke-width:1.0;"/><text fill="#000000" font-family="sans-serif" font-size="13" lengthAdjust="spacing" textLength="88" x="1542" y="669.3638">authenticates</text></g><!--link Wallet to Token--><g id="link_Wallet_Token"><path codeLine="107" d="M859,585.7969 C718.697,585.7969 644.607,587.0819 566,703.2969 C533.144,751.8719 607.35,765.0439 627,820.2969 C634.585,841.6248 647.742,868.6073 644.73,883.547 " fill="none" id="Wallet-to-Token" style="stroke:#00008B;stroke-width:1.0;"/><polygon fill="none" points="648.503,889.4452,628,894.7969,640.69,877.8277,648.503,889.4452" style="stroke:#00008B;stroke-width:1.0;"/><text fill="#000000" font-family="sans-serif" font-size="13" lengthAdjust="spacing" textLength="48" x="567" y="727.8638">creates</text></g><rect fill="#DDDDDD" height="100.1406" id="_legend" rx="7.5" ry="7.5" style="stroke:#000000;stroke-width:1.0;" width="185" x="1051" y="949.7813"/><text fill="#000000" font-family="sans-serif" font-size="18" lengthAdjust="spacing" textLength="34" x="1056" y="971.4893">Key</text><rect fill="#D3D3D3" height="16.2969" style="stroke:none;stroke-width:1.0;" width="175" x="1056" y="977.7344"/><text fill="#000000" font-family="sans-serif" font-size="14" lengthAdjust="spacing" textLength="56" x="1060" y="990.7295">Entities</text><rect fill="#ADD8E6" height="16.2969" style="stroke:none;stroke-width:1.0;" width="175" x="1056" y="994.0313"/><text fill="#000000" font-family="sans-serif" font-size="14" lengthAdjust="spacing" textLength="167" x="1060" y="1007.0264">Cryptographic Key (&#128273;)</text><rect fill="#F5F5DC" height="16.2969" style="stroke:none;stroke-width:1.0;" width="175" x="1056" y="1010.3281"/><text fill="#000000" font-family="sans-serif" font-size="14" lengthAdjust="spacing" textLength="34" x="1060" y="1023.3232">Data</text><rect fill="#90EE90" height="16.2969" style="stroke:none;stroke-width:1.0;" width="175" x="1056" y="1026.625"/><text fill="#000000" font-family="sans-serif" font-size="14" lengthAdjust="spacing" textLength="140" x="1060" y="1039.6201">Software System(s)</text><line style="stroke:#000000;stroke-width:1.0;" x1="1056" x2="1231" y1="977.7344" y2="977.7344"/><line style="stroke:#000000;stroke-width:1.0;" x1="1056" x2="1231" y1="994.0313" y2="994.0313"/><line style="stroke:#000000;stroke-width:1.0;" x1="1056" x2="1231" y1="1010.3281" y2="1010.3281"/><line style="stroke:#000000;stroke-width:1.0;" x1="1056" x2="1231" y1="1026.625" y2="1026.625"/><line style="stroke:#000000;stroke-width:1.0;" x1="1056" x2="1231" y1="1042.9219" y2="1042.9219"/><line style="stroke:#000000;stroke-width:1.0;" x1="1056" x2="1056" y1="977.7344" y2="1042.9219"/><line style="stroke:#000000;stroke-width:1.0;" x1="1231" x2="1231" y1="977.7344" y2="1042.9219"/><!--SRC=[fLVDZkCs3BxhAOZqai4YKspHGn441dRIxG-AjeDDi3qKFIWsOmjHf42I9qrtvY4AzDvNx2EKaXp7TcqdW-OMyUyZ-P6IxKwe0pTy3xRWcJuAbSEMIukCEU4amjgKrW5N6IorsegyDDm9hU0xWOQRj3WnPciVgUJMmYS6z7lWwIutkbJPKajju3Cfyi9jP8b1_CuOVQma6JUxMl2WJOOcIZQIdB0NnbWXCeGzxZTeR2EW3t3uNXLeXECgHVYYY-ORhTnA_87mzajomr1HMYUO_CAbH0SVKMNQJ2fmkS4JKzeXIDowEQp9By9HI0aRYixL2Lfsbh6OyUGdT4TjTl0kJP7-BmrcFXANy05pOHsL2dx0qmGMYt_-_klF90b54jQMQ45LnZmQfxMnfTYkW2SkHGO7ev-4fTBx5ZLqg3osqCTNO3YNyGo-okcn6U1r6HoZXo6881Hmi9YMT0OfTGH_TpNkruNlWA-Cw_wX2hZUm1Mlvoo2xd3bMcfhlIFtQyELtQ8PL6lFoTVSyNEg5QOwXGOV7upG92Fg_NoWmN9jKi8dU6aICpgoHCaJLDGnsjf8KLqvk3HugVTxWh92yqIuLuux9EyR53dwQeqLu5i_OF1ORgH8VGEiLtz_q6aHCeELo4DfBnfj1V_FnnKqcu-QL0HU6DkBgylEfHI49KfX6ZpVrM6xZ7ofpIuGcgdwzfJ618Sdwt1VGPqwiSUx88_diwDVECulFwBi8MQt2_cJpWTyqcdiRzReRojeDu_8dWPmcFuebBkxuB-edYcs5kcE23EKBO0bYGKNr2vr7RNlnzN7wXi6tmLZTpOUM5s3z6f0lXL5B_mscp_oS9UyWKuTMaU-9jpHGlAdz_VtPoGHI3TAOpoL50hFdBQJvkfXh7UEPxFdf9_ih7y4ei6j-tpKoGZmkT_4OLFHI8u1lpQ0hCNx_s4qE2AzoYCaP-CZq8WsdtSqHu1TPoSRcV9Mq41Htu8mmEns-aSlSVyJzY4pJughUpFwQcJRb_evr7zljGbTNzrtLDFcnXkTlV81q8OrRZiP07ZxQ8tarr-JCI7CViqqZLZsspZTYHV-PW-t3-ZIpVHsPkDrjIS5uilDRxqsu46p1kvXdLjM2YzTuTNfTlHRvJfH1uQnNizXJnaCxk9NG7qFfSAa4kDXtDFL2MCIS-eOX0-AXQNd__pjLmaLPF6v_vE4y-V5vO6Lm7l_4AF72JotXFwp926yfuFJkU678ZvoOEent5sKm_MJn3VHSzSzgWHMUkkEd3uduljYQhqnOOn8_mK0]--></g></svg>